<?xml version="1.0" standalone="no"?>
<!DOCTYPE svg PUBLIC "-//W3C//DTD SVG 20010904//EN"
 "http://www.w3.org/TR/2001/REC-SVG-20010904/DTD/svg10.dtd">
<svg version="1.0" xmlns="http://www.w3.org/2000/svg"
 width="644.507808pt" height="582.561450pt" viewBox="0 0 644.507808 582.561450"
 preserveAspectRatio="xMidYMid meet">
<metadata>
Created by potrace 1.16, written by Peter Selinger 2001-2019
</metadata>
<g transform="translate(-144.093964,591.447658) scale(0.100000,-0.100000)"
fill="#000000" stroke="none">
<path d="M4880 5913 c-101 -4 -304 -30 -420 -53 -539 -107 -1028 -367 -1410
-750 -75 -74 -154 -157 -175 -185 -22 -27 -46 -57 -54 -65 -27 -28 -148 -194
-204 -280 -30 -47 -86 -146 -124 -220 l-68 -135 -482 -5 c-265 -3 -485 -9
-490 -13 -4 -5 -9 -111 -11 -237 -3 -199 -1 -230 13 -244 14 -14 44 -16 200
-16 101 0 189 -2 197 -5 11 -4 13 -110 9 -604 -3 -598 -3 -599 18 -620 20 -20
29 -21 325 -21 167 0 311 3 320 6 14 6 16 69 16 619 l0 613 23 6 c12 3 101 6
198 6 158 0 178 2 192 18 15 16 17 47 17 230 0 139 -4 220 -12 237 l-11 25
-174 0 c-125 0 -173 3 -173 12 0 20 109 225 157 295 106 156 244 329 292 368
13 10 63 56 111 102 138 133 302 258 468 358 79 47 303 160 367 185 11 4 43
17 70 28 135 53 336 106 550 144 115 20 158 22 375 21 175 -2 265 -7 315 -18
39 -8 120 -24 180 -36 169 -33 316 -78 525 -161 230 -93 474 -246 690 -435
185 -161 249 -229 362 -383 137 -186 182 -259 280 -450 78 -151 112 -234 148
-360 12 -41 25 -86 30 -100 23 -72 62 -264 76 -375 13 -107 4 -672 -12 -750
-8 -38 -14 -87 -14 -108 0 -59 -36 -204 -97 -392 -55 -172 -62 -189 -116 -305
-43 -92 -169 -309 -219 -379 -24 -32 -50 -69 -58 -82 -29 -43 -194 -234 -232
-268 -21 -18 -51 -41 -67 -50 -16 -9 -48 -32 -70 -53 -23 -20 -66 -56 -96 -80
-56 -45 -76 -80 -32 -57 39 20 151 106 186 143 19 20 45 36 57 36 18 0 111 75
181 147 12 13 25 23 28 23 14 0 -44 -68 -154 -182 -156 -162 -325 -296 -550
-435 -46 -29 -98 -66 -115 -82 -17 -16 -69 -49 -116 -72 -101 -50 -96 -47 -84
-59 19 -19 199 61 379 168 208 124 362 241 524 396 83 80 245 267 310 358 19
27 36 46 39 44 17 -17 -180 -261 -322 -399 -307 -299 -675 -524 -1075 -657
-75 -25 -99 -29 -126 -21 -19 5 -35 7 -37 6 -4 -4 -126 -31 -208 -46 -142 -26
-191 -30 -423 -39 -169 -6 -253 -12 -263 -21 -15 -12 -82 -10 -304 11 -74 6
-186 34 -340 83 -135 43 -427 181 -585 277 -240 145 -376 253 -570 451 -204
210 -405 494 -542 766 -56 113 -57 114 -40 143 14 23 17 55 17 173 0 150 -2
157 -43 157 -36 -1 -42 -18 -47 -147 l-5 -128 -30 0 -30 0 -5 128 c-5 132 -10
146 -52 147 -44 0 -46 -17 -39 -292 1 -16 12 -38 28 -53 24 -22 37 -25 99 -25
l72 0 6 -33 c9 -51 124 -267 224 -422 63 -97 186 -259 246 -324 182 -195 304
-308 452 -417 218 -160 321 -220 589 -344 178 -82 375 -142 535 -161 47 -6
112 -14 145 -19 79 -12 263 -29 345 -32 54 -3 65 -6 62 -20 -4 -27 13 -30 136
-29 256 3 574 65 857 168 55 20 104 40 109 45 6 4 16 8 24 8 24 0 254 115 358
180 215 132 368 253 555 440 190 189 302 331 423 535 121 204 253 495 282 620
4 17 10 35 14 40 4 6 12 30 18 55 6 25 21 90 35 145 70 281 92 668 56 990 -17
158 -55 377 -80 460 -4 17 -18 64 -29 105 -12 41 -25 84 -30 95 -5 11 -18 47
-29 80 -59 177 -203 446 -349 649 -135 187 -353 415 -555 579 -86 70 -203 154
-237 170 -18 9 -40 23 -100 62 -127 82 -342 179 -551 249 -221 74 -317 95
-614 136 -79 11 -303 18 -415 13z m2877 -3325 c-2 -13 -4 -5 -4 17 -1 22 1 32
4 23 2 -10 2 -28 0 -40z m-36 -192 c-6 -22 -22 -89 -36 -147 -23 -102 -69
-243 -85 -264 -4 -5 -11 -21 -15 -35 -12 -41 -67 -152 -72 -147 -2 3 5 27 16
54 36 87 93 246 126 353 54 175 65 216 66 241 1 19 2 20 6 5 3 -10 0 -37 -6
-60z m-218 -626 c-3 -11 -9 -20 -13 -20 -5 0 -6 9 -3 20 3 11 9 20 13 20 5 0
6 -9 3 -20z m-36 -72 c-3 -8 -6 -5 -6 6 -1 11 2 17 5 13 3 -3 4 -12 1 -19z
M6466 4244 c-3 -11 -10 -48 -16 -84 -5 -36 -17 -101 -25 -145 -15 -74 -31
-165 -56 -309 -5 -33 -12 -63 -15 -68 -5 -7 -54 16 -206 101 -82 45 -78 28 53
-198 11 -19 16 -37 12 -41 -9 -8 -75 -22 -203 -45 -213 -37 -406 -77 -414 -85
-10 -10 7 -15 89 -30 91 -16 219 -39 300 -55 44 -8 115 -20 158 -27 42 -7 77
-15 77 -19 0 -6 -20 -43 -114 -211 -38 -67 -18 -63 172 42 50 27 74 36 77 27
2 -6 16 -77 30 -157 14 -80 33 -179 41 -220 8 -41 19 -110 25 -152 8 -52 16
-78 25 -78 13 0 24 45 59 235 9 50 23 122 30 160 8 39 19 103 26 143 7 40 15
74 18 76 3 2 49 -21 101 -50 137 -78 139 -79 151 -67 8 8 -3 37 -42 105 -30
51 -59 105 -66 121 -14 32 -18 30 77 47 67 12 139 25 295 55 50 9 104 19 120
21 54 9 115 26 115 34 0 4 -109 29 -242 54 -364 70 -373 73 -371 84 1 6 30 60
63 121 34 61 59 115 55 120 -8 13 -23 7 -144 -62 -57 -32 -107 -55 -111 -50
-3 4 -12 37 -18 73 -37 210 -104 536 -111 543 -5 5 -12 1 -15 -9z m59 -499
c10 -55 24 -128 31 -163 8 -35 14 -73 14 -85 0 -20 -55 -87 -72 -87 -4 0 -8
109 -7 243 1 253 5 264 34 92z m-217 -168 c17 -10 32 -25 32 -33 0 -16 -37
-37 -50 -29 -10 6 -50 78 -50 89 0 7 29 -4 68 -27z m412 28 c0 -17 -43 -87
-56 -92 -20 -7 -47 19 -39 38 8 21 95 70 95 54z m-307 -185 l42 -39 -245 0
-245 1 185 38 c102 21 193 38 203 39 10 1 37 -17 60 -39z m586 -64 c-4 -4
-292 -61 -367 -72 -40 -6 -46 -4 -78 27 -30 29 -32 34 -17 41 19 7 470 11 462
4z m-525 -267 c7 -236 -1 -304 -22 -192 -21 104 -62 342 -62 354 0 14 52 69
64 69 10 0 15 -56 20 -231z m-144 121 c6 -11 8 -24 5 -29 -5 -9 -93 -61 -101
-61 -5 0 36 80 49 98 14 18 35 15 47 -8z m372 -39 c35 -59 30 -61 -41 -16 -45
28 -49 36 -25 60 23 22 31 17 66 -44z M3140 4201 c-13 -26 -14 -1700 0 -1721
8 -13 57 -15 320 -18 207 -2 316 1 330 8 20 11 20 19 20 868 0 654 -3 861 -12
870 -9 9 -96 12 -330 12 -303 0 -318 -1 -328 -19z M4090 4201 c-7 -13 -10
-303 -10 -870 0 -830 0 -851 19 -861 25 -13 590 -14 625 0 l26 10 0 280 c0
155 4 279 8 276 9 -5 68 -106 235 -396 70 -124 100 -166 118 -171 13 -4 175
-7 360 -8 271 -1 339 2 354 13 18 13 17 18 -38 107 -32 52 -80 128 -107 169
-27 41 -55 85 -62 97 -7 12 -34 54 -59 95 -26 40 -86 136 -134 213 -48 77
-103 163 -121 192 -19 28 -34 61 -34 72 0 11 26 57 58 100 31 44 91 127 132
185 41 58 110 154 153 213 44 60 97 135 120 168 22 33 47 66 54 74 8 7 13 23
11 35 -3 21 -5 21 -330 24 l-328 2 -42 -58 c-24 -33 -49 -68 -56 -78 -12 -18
-141 -207 -234 -341 -24 -35 -46 -63 -50 -63 -5 0 -8 116 -8 258 0 187 -3 261
-12 270 -9 9 -95 12 -325 12 -299 0 -313 -1 -323 -19z M1583 2253 c-7 -2 -13
-20 -13 -39 0 -35 3 -37 53 -48 l27 -6 0 -136 0 -135 43 3 42 3 5 135 5 135
32 3 c35 4 51 38 33 72 -10 18 -21 20 -113 19 -56 0 -108 -3 -114 -6z M1922
2245 c-46 -20 -62 -65 -62 -173 0 -145 31 -188 136 -186 107 1 134 40 134 191
0 58 -5 108 -13 123 -26 53 -124 76 -195 45z m106 -178 c-3 -78 -4 -82 -27
-85 -36 -5 -51 22 -51 90 0 45 5 63 20 78 16 16 24 18 41 10 18 -10 19 -20 17
-93z M2547 2252 c-16 -3 -17 -18 -15 -180 l3 -177 40 0 c39 0 40 1 45 40 l6
40 19 -40 c18 -36 24 -40 63 -43 48 -4 52 5 27 64 -13 32 -13 37 5 67 37 61
20 190 -30 217 -21 11 -129 19 -163 12z m116 -114 c14 -21 -6 -68 -28 -68 -11
0 -15 11 -15 46 0 37 3 45 16 42 9 -2 22 -11 27 -20z M2842 2245 c-21 -16 -22
-22 -22 -173 0 -86 4 -163 9 -170 5 -8 22 -12 42 -10 l34 3 3 178 c1 106 -1
177 -7 177 -5 0 -15 2 -23 5 -7 3 -23 -2 -36 -10z M3007 2247 c-16 -11 -17
-31 -15 -182 l3 -170 40 0 40 0 3 53 c2 28 7 52 13 52 5 0 9 -5 9 -11 0 -7 10
-32 22 -56 21 -42 24 -44 63 -41 l40 3 3 172 c2 166 2 172 -19 183 -47 26 -78
-4 -79 -75 0 -28 -2 -26 -24 21 -16 34 -31 53 -47 57 -32 9 -33 9 -52 -6z
M3328 2253 c-16 -4 -18 -21 -18 -184 l0 -179 33 0 c46 0 57 15 57 77 0 29 3
53 8 53 4 0 16 -28 27 -63 20 -61 21 -62 59 -65 21 -2 43 1 49 7 11 11 5 28
-58 178 l-18 42 37 49 c40 56 45 78 17 87 -28 8 -65 -10 -93 -45 l-25 -32 -7
36 c-4 20 -11 36 -16 36 -4 0 -14 2 -22 4 -7 2 -21 2 -30 -1z M3663 2245 c-50
-21 -63 -59 -63 -175 0 -149 27 -185 136 -184 100 2 124 30 131 159 6 114 -11
175 -57 197 -42 21 -103 23 -147 3z m91 -88 c14 -10 16 -26 14 -92 l-3 -80
-30 0 -30 0 -3 78 c-4 97 11 124 52 94z M3945 2244 c-13 -14 -15 -41 -13 -182
l3 -167 42 -3 42 -3 3 68 3 68 30 0 c30 0 30 -1 35 -65 l5 -65 34 -3 c20 -2
37 2 42 10 5 7 9 86 9 175 0 152 -1 163 -20 173 -11 6 -31 8 -44 4 -23 -5 -25
-11 -28 -67 -3 -62 -3 -62 -33 -62 -30 0 -30 1 -33 60 -2 33 -9 63 -15 67 -19
12 -44 9 -62 -8z M4305 2246 c-47 -21 -68 -51 -68 -96 0 -47 23 -77 81 -106
49 -25 73 -45 66 -55 -8 -14 -40 -10 -54 6 -18 21 -43 19 -67 -7 -42 -47 11
-98 101 -98 47 0 58 4 85 31 26 26 31 38 31 78 0 56 -23 87 -88 120 -22 11
-43 25 -46 30 -12 19 11 20 38 2 32 -21 62 -17 77 11 32 59 -79 120 -156 84z
M4633 2249 c-21 -8 -25 -18 -57 -134 -10 -33 -24 -82 -32 -109 -7 -26 -14 -64
-14 -82 0 -32 2 -34 36 -34 30 0 37 4 49 34 13 31 32 46 56 46 5 0 16 -18 25
-40 14 -36 20 -40 50 -40 22 0 37 6 40 15 6 14 -10 81 -61 273 -8 28 -16 56
-19 61 -8 13 -50 19 -73 10z M4872 2252 l-22 -3 2 -177 3 -177 28 -3 c36 -4
57 13 57 47 1 25 2 24 18 -9 12 -25 25 -36 45 -38 24 -3 30 2 47 40 11 24 20
52 21 63 2 11 5 -7 8 -40 l6 -60 35 0 35 0 3 176 2 177 -29 4 c-54 8 -67 -5
-96 -92 -15 -45 -30 -78 -33 -75 -4 4 -18 41 -32 83 -26 80 -41 93 -98 84z
M5258 2253 c-14 -4 -17 -21 -20 -116 -4 -155 3 -195 38 -224 23 -18 41 -23 87
-23 67 0 108 18 125 55 7 16 12 77 12 160 0 124 -2 135 -20 145 -11 6 -31 8
-45 4 -25 -6 -25 -6 -25 -128 0 -66 -4 -127 -9 -134 -5 -8 -21 -12 -37 -10
l-29 3 -3 125 c-2 103 -5 127 -19 138 -17 12 -25 13 -55 5z M5590 2250 c-12
-7 -16 -40 -18 -160 -5 -193 -3 -202 46 -198 l37 3 3 170 c2 151 1 171 -15
182 -20 15 -33 16 -53 3z M5952 2249 c-55 -16 -72 -57 -72 -172 0 -148 29
-187 139 -187 53 0 63 3 91 31 27 28 31 37 28 78 -3 45 -4 46 -37 46 -33 0
-43 -9 -55 -47 -7 -25 -52 -23 -66 1 -16 30 -12 123 6 149 20 29 27 28 64 -8
48 -46 90 -39 90 16 0 84 -81 124 -188 93z M6280 2252 c-65 -30 -85 -87 -78
-210 8 -128 31 -154 134 -153 111 1 135 34 133 185 -1 111 -7 134 -41 159 -28
21 -120 33 -148 19z m79 -96 c8 -9 11 -43 9 -93 -3 -74 -4 -78 -27 -81 -13 -2
-28 2 -32 10 -13 20 -11 152 3 166 16 16 33 15 47 -2z M6557 2253 c-16 -4 -17
-19 -15 -181 l3 -177 28 -3 c39 -5 57 14 58 57 l0 36 17 -45 c14 -36 23 -46
44 -48 31 -4 50 25 65 93 8 39 8 39 13 -25 5 -63 6 -65 35 -68 48 -6 55 14 55
172 0 164 -4 182 -35 190 -49 12 -71 -8 -95 -86 -34 -110 -33 -110 -75 25 -10
31 -23 57 -29 57 -6 0 -20 2 -31 4 -11 2 -28 2 -38 -1z M5736 1974 c-34 -33
-11 -84 37 -84 40 0 57 15 57 50 0 14 -5 31 -12 38 -17 17 -64 15 -82 -4z
M3580 650 c0 -12 39 -49 52 -50 3 0 39 -19 80 -43 40 -24 89 -50 108 -59 98
-45 223 -98 288 -122 162 -58 422 -113 422 -89 0 11 -47 27 -145 49 -195 43
-506 168 -698 280 -67 39 -107 52 -107 34z M5888 543 c-50 -21 -58 -43 -15
-43 34 0 97 33 97 50 0 14 -38 11 -82 -7z M5060 381 c-64 -7 -66 -26 -2 -25
26 0 49 7 59 17 10 9 13 16 8 15 -6 -1 -35 -4 -65 -7z"/>
</g>
</svg>
